<svg width="346" height="37" viewBox="0 0 346 37" fill="none" xmlns="http://www.w3.org/2000/svg">
<path d="M10.3182 36H0.0908813L11.6136 1.09092H24.5682L36.0909 36H25.8636L18.2272 10.7046H17.9545L10.3182 36ZM8.40906 22.2273H27.6363V29.3182H8.40906V22.2273Z" fill="white"/>
<path d="M34.0923 8.72729V1.09092H64.4332V8.72729H53.9332V36H44.5923V8.72729H34.0923Z" fill="white"/>
<path d="M68 36V1.09092H77.4772V14.7273H90.0227V1.09092H99.5V36H90.0227V22.3636H77.4772V36H68Z" fill="white"/>
<path d="M104 36V1.09092H129.159V8.72729H113.477V14.7273H127.864V22.3636H113.477V28.3636H129.091V36H104Z" fill="white"/>
<path d="M164.064 1.09092V36H156.155L143.541 17.6591H143.337V36H133.859V1.09092H141.905L154.314 19.3636H154.587V1.09092H164.064Z" fill="white"/>
<path d="M187.365 12C187.274 10.8636 186.848 9.97728 186.087 9.34092C185.337 8.70456 184.195 8.38637 182.66 8.38637C181.683 8.38637 180.882 8.50569 180.257 8.74433C179.643 8.9716 179.189 9.2841 178.893 9.68183C178.598 10.0796 178.445 10.5341 178.433 11.0455C178.41 11.4659 178.484 11.8466 178.655 12.1875C178.837 12.5171 179.121 12.8182 179.507 13.0909C179.893 13.3523 180.388 13.5909 180.99 13.8068C181.592 14.0227 182.308 14.2159 183.138 14.3864L186.001 15C187.933 15.4091 189.587 15.9489 190.962 16.6193C192.337 17.2898 193.462 18.0796 194.337 18.9886C195.212 19.8864 195.854 20.8977 196.263 22.0227C196.683 23.1477 196.899 24.375 196.91 25.7046C196.899 28 196.325 29.9432 195.189 31.5341C194.053 33.125 192.428 34.3352 190.314 35.1648C188.212 35.9943 185.683 36.4091 182.729 36.4091C179.695 36.4091 177.047 35.9602 174.785 35.0625C172.535 34.1648 170.785 32.7841 169.535 30.9205C168.297 29.0455 167.672 26.6477 167.66 23.7273H176.66C176.717 24.7955 176.984 25.6932 177.462 26.4205C177.939 27.1477 178.609 27.6989 179.473 28.0739C180.348 28.4489 181.388 28.6364 182.592 28.6364C183.604 28.6364 184.45 28.5114 185.132 28.2614C185.814 28.0114 186.331 27.6648 186.683 27.2216C187.035 26.7784 187.217 26.2727 187.229 25.7046C187.217 25.1705 187.041 24.7046 186.7 24.3068C186.371 23.8977 185.825 23.5341 185.064 23.2159C184.303 22.8864 183.274 22.5796 181.979 22.2955L178.501 21.5455C175.41 20.875 172.973 19.7557 171.189 18.1875C169.416 16.608 168.535 14.4546 168.547 11.7273C168.535 9.51138 169.126 7.57388 170.32 5.91479C171.524 4.24433 173.189 2.94319 175.314 2.01137C177.45 1.07956 179.899 0.613647 182.66 0.613647C185.479 0.613647 187.916 1.08524 189.973 2.02842C192.03 2.9716 193.615 4.30115 194.729 6.01706C195.854 7.7216 196.422 9.71592 196.433 12H187.365Z" fill="white"/>
<path d="M200.516 36V1.09092H215.584C218.175 1.09092 220.442 1.60228 222.385 2.62501C224.328 3.64774 225.839 5.08524 226.919 6.93751C227.999 8.78978 228.538 10.9546 228.538 13.4318C228.538 15.9318 227.982 18.0966 226.868 19.9261C225.766 21.7557 224.214 23.1648 222.214 24.1534C220.226 25.1421 217.902 25.6364 215.243 25.6364H206.243V18.2727H213.334C214.447 18.2727 215.396 18.0796 216.18 17.6932C216.976 17.2955 217.584 16.733 218.004 16.0057C218.436 15.2784 218.652 14.4205 218.652 13.4318C218.652 12.4318 218.436 11.5796 218.004 10.875C217.584 10.1591 216.976 9.61365 216.18 9.23865C215.396 8.85228 214.447 8.6591 213.334 8.6591H209.993V36H200.516Z" fill="white"/>
<path d="M232.016 36V1.09092H257.175V8.72729H241.493V14.7273H255.879V22.3636H241.493V28.3636H257.107V36H232.016Z" fill="white"/>
<path d="M275.307 36H261.875V1.09092H275.17C278.761 1.09092 281.864 1.78978 284.477 3.18751C287.102 4.57387 289.125 6.57387 290.545 9.18751C291.977 11.7898 292.693 14.9091 292.693 18.5455C292.693 22.1818 291.983 25.3068 290.562 27.9205C289.142 30.5227 287.131 32.5227 284.528 33.9205C281.926 35.3068 278.852 36 275.307 36ZM271.352 27.9546H274.966C276.693 27.9546 278.165 27.6761 279.381 27.1193C280.608 26.5625 281.54 25.6023 282.176 24.2386C282.824 22.875 283.148 20.9773 283.148 18.5455C283.148 16.1136 282.818 14.2159 282.159 12.8523C281.511 11.4886 280.557 10.5284 279.295 9.9716C278.045 9.41478 276.511 9.13637 274.693 9.13637H271.352V27.9546Z" fill="white"/>
<path d="M306.555 1.09092V36H297.078V1.09092H306.555Z" fill="white"/>
<path d="M320.115 36H309.888L321.41 1.09092H334.365L345.888 36H335.66L328.024 10.7046H327.751L320.115 36ZM318.206 22.2273H337.433V29.3182H318.206V22.2273Z" fill="white"/>
</svg>
